<?xml version="1.0" encoding="utf-8"?>
<!-- Generator: Adobe Illustrator 24.1.1, SVG Export Plug-In . SVG Version: 6.00 Build 0)  -->
<svg version="1.2" baseProfile="tiny" id="Слой_1"
	 xmlns="http://www.w3.org/2000/svg" xmlns:xlink="http://www.w3.org/1999/xlink" x="0px" y="0px" viewBox="0 0 31 38"
	 xml:space="preserve">
<path d="M30.97,28.64c-1.08-0.1-1.97-0.63-2.83-1.24c-0.44-0.31-0.84-0.67-1.24-1.04c-0.11-0.1-0.24-0.19-0.24,0.06
	c0.02,1.57-0.39,3.11-0.47,4.67c-0.04,0.68,0.03,1.36,0.18,2.03c0.03,0.12,0.1,0.28-0.01,0.36c-0.15,0.11-0.26-0.05-0.37-0.12
	c-0.66-0.43-1.03-1.06-1.28-1.78c-0.17-0.47-0.25-0.96-0.37-1.52c-0.21,0.31-0.24,0.62-0.34,0.9c-0.4,1.11-0.86,2.21-1.07,3.37
	c-0.22,1.21-0.15,2.38,0.68,3.4c0.05,0.07,0.12,0.14,0.1,0.25c-0.16,0.07-0.26-0.06-0.37-0.13c-1.19-0.75-1.82-1.88-2.13-3.22
	c-0.04-0.15-0.04-0.31-0.09-0.45c-0.37-0.95,0.02-1.68,0.67-2.35c0.05-0.06,0.1-0.14,0.18-0.12c0.11,0.03,0.1,0.14,0.1,0.23
	c0,0.54,0.06,1.07,0.23,1.61c0.19-0.45,0.38-0.91,0.57-1.36c0.52-1.22,1.08-2.42,1.3-3.74c0.07-0.43,0.04-0.88,0.31-1.25
	c0.07-0.1,0.05-0.28,0.23-0.27c0.14,0.01,0.15,0.16,0.2,0.26c0.35,0.74,0.45,1.55,0.57,2.35c0.01,0.04,0.01,0.07,0.08,0.12
	c0.17-0.79,0.35-1.59,0.52-2.38c0.25-1.16,0.23-2.3-0.22-3.41c-0.03-0.08-0.08-0.18,0.01-0.25c0.13-0.09,0.22,0.03,0.29,0.11
	c0.41,0.49,0.78,1.02,1.24,1.47c0.12,0.12,0.21,0.26,0.36,0.35c-0.26-0.8-0.66-1.53-0.85-2.33c-0.2-0.79-0.15-1.61-0.15-2.44
	c0.95,2.84,2.32,5.44,4.2,7.77C30.97,28.59,30.97,28.61,30.97,28.64z"/>
<path d="M15.39,22.94c-3.23,0-6.46,0-9.7,0c-0.15,0-0.31,0-0.46-0.01c-0.48-0.02-0.6-0.15-0.54-0.62c0.15-1.15,0.15-2.3,0-3.45
	c-0.06-0.49,0.06-0.63,0.57-0.64c0.9-0.02,1.8-0.01,2.7-0.01c5.76,0,11.51,0,17.27,0.01c1.01,0,1.05,0.07,0.92,1.06
	c-0.11,0.85-0.1,1.72,0,2.58c0.12,1.01,0.08,1.09-0.95,1.09C21.93,22.94,18.66,22.94,15.39,22.94z"/>
<path d="M24.18,11.3c0.51,0.12,1.02,0.22,1.52,0.36c0.4,0.11,0.79,0.1,1.19,0.06c0.39-0.03,0.57-0.24,0.59-0.63
	c0.12-2.09-0.72-3.75-2.32-5.04c-1.23-1-2.64-1.63-4.18-1.99c-0.2-0.05-0.4-0.1-0.6-0.16c-0.03-0.01-0.05-0.05-0.1-0.09
	c0.2-0.14,0.41-0.07,0.6-0.09C21,3.7,21.13,3.74,21.19,3.6c0.05-0.12-0.02-0.23-0.09-0.32c-0.08-0.09-0.18-0.2-0.29-0.25
	c-1.5-0.76-2.99-1.56-4.69-1.8c-1.19-0.17-2.3,0.12-3.39,0.54c-0.84,0.33-1.65,0.73-2.45,1.14c-0.11,0.06-0.22,0.13-0.33,0.21
	C9.79,3.24,9.63,3.41,9.69,3.6c0.06,0.2,0.29,0.09,0.45,0.11c0.14,0.02,0.28-0.02,0.45,0.09c-0.2,0.17-0.42,0.2-0.64,0.25
	C8.03,4.48,6.31,5.32,4.94,6.77c-1.13,1.2-1.64,2.65-1.56,4.3c0.02,0.44,0.23,0.63,0.69,0.67c0.79,0.07,1.53-0.18,2.28-0.36
	c0.11-0.03,0.23-0.14,0.39,0.03c-0.6,0.33-1.21,0.57-1.86,0.74c-0.31,0.08-0.64,0.11-0.96,0.08c-0.28-0.03-0.41,0.09-0.51,0.34
	c-0.42,1.03-0.55,2.08-0.25,3.17c0.2,0.72,0.58,1.32,1.28,1.65c0.27,0.13,0.26,0.21,0.02,0.38c-0.45,0.32-0.5,0.33-0.93-0.02
	c-1.15-0.93-1.47-2.19-1.36-3.59c0.06-0.81,0.27-1.59,0.65-2.33c0.06-0.12,0.06-0.24,0.02-0.37c-0.35-1.13-0.13-2.22,0.31-3.27
	c0.91-2.22,2.57-3.61,4.87-4.24c0.2-0.05,0.35-0.11,0.38-0.36c0.08-0.67,0.45-1.16,1-1.53c1.02-0.7,2.18-1.09,3.32-1.53
	c1.91-0.74,3.8-0.68,5.68,0.08c0.89,0.36,1.81,0.68,2.65,1.16c0.73,0.42,1.32,0.94,1.43,1.84c0.03,0.22,0.18,0.29,0.37,0.34
	c1.4,0.36,2.6,1.04,3.56,2.12c1.15,1.29,1.82,2.79,1.8,4.55c0,0.14,0.01,0.3-0.05,0.42c-0.25,0.5-0.04,0.93,0.14,1.38
	c0.45,1.15,0.6,2.33,0.24,3.54c-0.23,0.78-0.66,1.41-1.32,1.89c-0.32,0.23-0.83,0.12-1.01-0.22c-0.05-0.1,0.01-0.14,0.08-0.17
	c1.37-0.63,1.6-1.84,1.57-3.16c-0.01-0.56-0.15-1.12-0.35-1.65c-0.12-0.3-0.27-0.45-0.63-0.43c-1,0.06-1.86-0.38-2.72-0.81
	C24.16,11.38,24.17,11.34,24.18,11.3z"/>
<path d="M6.43,23.55c0.34-0.07,0.54,0.11,0.67,0.5c0.86,2.57,2.12,4.93,3.79,7.06c0.78,1,1.67,1.89,2.81,2.49
	c1.63,0.86,3.09,0.44,4.44-0.62c1.52-1.2,2.61-2.75,3.57-4.41c0.86-1.48,1.6-3.02,2.11-4.66c0.1-0.32,0.94-0.53,1.19-0.3
	c0.14,0.13,0.07,0.29,0.02,0.43c-0.68,2.16-1.63,4.19-2.84,6.09c-1.04,1.63-2.24,3.1-3.88,4.18c-1.92,1.26-3.83,1.24-5.75,0.01
	c-1.39-0.89-2.44-2.11-3.37-3.45c-1.42-2.05-2.5-4.28-3.29-6.64C5.68,23.57,5.7,23.55,6.43,23.55z"/>
<path d="M4.11,20.86c0.14,1.65-0.27,3.14-1.06,4.56c0.04,0.02,0.07,0.04,0.11,0.06c0.27-0.28,0.54-0.55,0.8-0.84
	c0.25-0.29,0.48-0.6,0.72-0.9c0.06-0.08,0.13-0.19,0.25-0.13c0.11,0.06,0.07,0.18,0.04,0.28c-0.11,0.39-0.23,0.78-0.29,1.19
	c-0.17,1.23,0.14,2.4,0.39,3.57c0.06,0.3,0.15,0.6,0.28,0.9c0.08-0.43,0.17-0.85,0.25-1.28c0.08-0.42,0.21-0.82,0.4-1.2
	c0.1-0.2,0.19-0.23,0.31-0.01c0.19,0.33,0.3,0.67,0.34,1.05c0.13,1.28,0.64,2.45,1.14,3.62c0.26,0.61,0.52,1.23,0.8,1.88
	c0.18-0.53,0.17-1.03,0.19-1.54c0-0.13-0.07-0.32,0.11-0.37c0.14-0.04,0.19,0.15,0.28,0.23c0.77,0.66,0.76,1.49,0.56,2.38
	c-0.32,1.44-0.9,2.7-2.21,3.51c-0.11,0.07-0.21,0.19-0.38,0.14c0.01-0.04,0-0.09,0.02-0.11c1.04-1.24,1.09-2.65,0.65-4.11
	c-0.36-1.19-0.79-2.36-1.19-3.54c-0.01-0.03-0.04-0.05-0.08-0.11c-0.1,0.43-0.18,0.85-0.3,1.25c-0.25,0.83-0.66,1.56-1.41,2.05
	c-0.1,0.07-0.22,0.19-0.34,0.11c-0.12-0.08,0-0.21,0.02-0.32c0.24-1.08,0.2-2.17,0.08-3.26c-0.14-1.18-0.37-2.36-0.37-3.56
	c0-0.03-0.02-0.07-0.05-0.15c-0.49,0.4-0.96,0.79-1.44,1.16c-0.7,0.53-1.47,0.94-2.33,1.17c-0.12,0.03-0.27,0.12-0.36,0
	c-0.09-0.13,0.06-0.23,0.14-0.32c1.63-2.13,2.92-4.44,3.71-7.01C3.92,21.1,3.92,20.95,4.11,20.86z"/>
<path d="M23.43,14.04c-0.31,0.19-0.67,0.24-1.02,0.26c-0.39,0.03-0.41,0.07-0.2,0.4c0.7,1.1,1.44,2.17,2.71,2.71
	c0.04,0.02,0.06,0.07,0.18,0.2c-0.78-0.05-1.46,0.22-2.06-0.42c-0.76-0.82-1.39-1.72-1.91-2.7c-0.12-0.22-0.25-0.36-0.5-0.44
	c-2.16-0.73-3.74-2.16-4.93-4.05c-0.27-0.42-0.26-0.43-0.52-0.01c-1.2,1.93-2.82,3.35-5,4.1c-0.22,0.07-0.33,0.21-0.44,0.4
	c-0.5,0.93-1.1,1.78-1.78,2.6c-0.55,0.66-1.22,0.54-1.9,0.53c-0.06,0-0.14-0.03-0.13-0.11c0.01-0.05,0.07-0.1,0.13-0.13
	c0.36-0.18,0.71-0.36,1.01-0.63c0.67-0.61,1.2-1.34,1.66-2.12c0.13-0.21,0.07-0.3-0.17-0.3c-0.39,0-0.76-0.07-1.12-0.21
	c-0.01-0.1,0.05-0.11,0.1-0.1c1.52,0.23,2.81-0.34,4-1.18c1.63-1.14,2.66-2.73,3.32-4.58c0.16-0.45,0.28-0.91,0.43-1.36
	c0.03-0.09,0.02-0.24,0.16-0.23c0.12,0.01,0.12,0.15,0.15,0.25c0.29,1.04,0.66,2.05,1.16,3.02c0.59,1.15,1.45,2.05,2.48,2.81
	c0.83,0.61,1.73,1.06,2.74,1.28C22.45,14.11,22.93,14.06,23.43,14.04z"/>
</svg>
